<mxfile host="app.diagrams.net" modified="2023-03-14T03:33:52.110Z" agent="5.0 (Windows NT 10.0; Win64; x64) AppleWebKit/537.36 (KHTML, like Gecko) Chrome/111.0.0.0 Safari/537.36" etag="kszbURnM0UcC1VmfucMO" version="21.0.6" type="github">
  <diagram name="第 1 页" id="cYCt0g9zkRtDHQeXJBKw">
    <mxGraphModel dx="1687" dy="899" grid="1" gridSize="10" guides="1" tooltips="1" connect="1" arrows="1" fold="1" page="1" pageScale="1" pageWidth="827" pageHeight="1169" math="0" shadow="0">
      <root>
        <mxCell id="0" />
        <mxCell id="1" parent="0" />
        <mxCell id="cJAQ2IT-YWqgnm6LiaBg-1" value="登录" style="ellipse;whiteSpace=wrap;html=1;" vertex="1" parent="1">
          <mxGeometry x="354" y="80" width="120" height="50" as="geometry" />
        </mxCell>
        <mxCell id="cJAQ2IT-YWqgnm6LiaBg-2" value="" style="endArrow=classic;html=1;rounded=0;exitX=0.5;exitY=1;exitDx=0;exitDy=0;" edge="1" parent="1" source="cJAQ2IT-YWqgnm6LiaBg-1">
          <mxGeometry width="50" height="50" relative="1" as="geometry">
            <mxPoint x="410" y="150" as="sourcePoint" />
            <mxPoint x="414" y="180" as="targetPoint" />
          </mxGeometry>
        </mxCell>
        <mxCell id="cJAQ2IT-YWqgnm6LiaBg-3" value="触发control.vue文件中的mounted生命周期触发main函数" style="rounded=0;whiteSpace=wrap;html=1;" vertex="1" parent="1">
          <mxGeometry x="354" y="180" width="120" height="60" as="geometry" />
        </mxCell>
        <mxCell id="cJAQ2IT-YWqgnm6LiaBg-4" value="在window对象上挂载&lt;br&gt;new zjsdk2()并调用以下方法" style="rounded=0;whiteSpace=wrap;html=1;" vertex="1" parent="1">
          <mxGeometry x="354" y="280" width="120" height="60" as="geometry" />
        </mxCell>
        <mxCell id="cJAQ2IT-YWqgnm6LiaBg-5" value="" style="endArrow=classic;html=1;rounded=0;exitX=0.5;exitY=1;exitDx=0;exitDy=0;" edge="1" parent="1" source="cJAQ2IT-YWqgnm6LiaBg-3" target="cJAQ2IT-YWqgnm6LiaBg-4">
          <mxGeometry width="50" height="50" relative="1" as="geometry">
            <mxPoint x="390" y="340" as="sourcePoint" />
            <mxPoint x="440" y="290" as="targetPoint" />
          </mxGeometry>
        </mxCell>
        <mxCell id="cJAQ2IT-YWqgnm6LiaBg-6" value="onSetup&lt;br&gt;SDK的回调其内调用了connect函数功能: 入会" style="rounded=0;whiteSpace=wrap;html=1;" vertex="1" parent="1">
          <mxGeometry x="119" y="400" width="120" height="60" as="geometry" />
        </mxCell>
        <mxCell id="cJAQ2IT-YWqgnm6LiaBg-7" value="onConnect:返回不同媒体流" style="rounded=0;whiteSpace=wrap;html=1;" vertex="1" parent="1">
          <mxGeometry x="269" y="400" width="120" height="60" as="geometry" />
        </mxCell>
        <mxCell id="cJAQ2IT-YWqgnm6LiaBg-8" value="onRemoveStream:视频流断开的回调" style="rounded=0;whiteSpace=wrap;html=1;" vertex="1" parent="1">
          <mxGeometry x="429" y="400" width="120" height="60" as="geometry" />
        </mxCell>
        <mxCell id="cJAQ2IT-YWqgnm6LiaBg-9" value="onPrestentation:&amp;nbsp;与会者发起/结束双流的事件, 以及本地发起双流失败的事件" style="rounded=0;whiteSpace=wrap;html=1;" vertex="1" parent="1">
          <mxGeometry x="589" y="400" width="120" height="60" as="geometry" />
        </mxCell>
        <mxCell id="cJAQ2IT-YWqgnm6LiaBg-10" value="" style="endArrow=none;html=1;rounded=0;" edge="1" parent="1">
          <mxGeometry width="50" height="50" relative="1" as="geometry">
            <mxPoint x="180" y="360" as="sourcePoint" />
            <mxPoint x="810" y="360" as="targetPoint" />
          </mxGeometry>
        </mxCell>
        <mxCell id="cJAQ2IT-YWqgnm6LiaBg-11" value="" style="endArrow=none;html=1;rounded=0;entryX=0.5;entryY=1;entryDx=0;entryDy=0;" edge="1" parent="1" target="cJAQ2IT-YWqgnm6LiaBg-4">
          <mxGeometry width="50" height="50" relative="1" as="geometry">
            <mxPoint x="414" y="360" as="sourcePoint" />
            <mxPoint x="480" y="420" as="targetPoint" />
          </mxGeometry>
        </mxCell>
        <mxCell id="cJAQ2IT-YWqgnm6LiaBg-12" value="" style="endArrow=classic;html=1;rounded=0;entryX=0.5;entryY=0;entryDx=0;entryDy=0;" edge="1" parent="1" target="cJAQ2IT-YWqgnm6LiaBg-8">
          <mxGeometry width="50" height="50" relative="1" as="geometry">
            <mxPoint x="489" y="360" as="sourcePoint" />
            <mxPoint x="480" y="420" as="targetPoint" />
          </mxGeometry>
        </mxCell>
        <mxCell id="cJAQ2IT-YWqgnm6LiaBg-14" value="" style="endArrow=classic;html=1;rounded=0;entryX=0.5;entryY=0;entryDx=0;entryDy=0;" edge="1" parent="1" target="cJAQ2IT-YWqgnm6LiaBg-8">
          <mxGeometry width="50" height="50" relative="1" as="geometry">
            <mxPoint x="489" y="360" as="sourcePoint" />
            <mxPoint x="489" y="400" as="targetPoint" />
          </mxGeometry>
        </mxCell>
        <mxCell id="cJAQ2IT-YWqgnm6LiaBg-15" value="" style="endArrow=classic;html=1;rounded=0;entryX=0.5;entryY=0;entryDx=0;entryDy=0;" edge="1" parent="1" target="cJAQ2IT-YWqgnm6LiaBg-9">
          <mxGeometry width="50" height="50" relative="1" as="geometry">
            <mxPoint x="649" y="360" as="sourcePoint" />
            <mxPoint x="499" y="410" as="targetPoint" />
          </mxGeometry>
        </mxCell>
        <mxCell id="cJAQ2IT-YWqgnm6LiaBg-16" value="" style="endArrow=classic;html=1;rounded=0;" edge="1" parent="1" target="cJAQ2IT-YWqgnm6LiaBg-7">
          <mxGeometry width="50" height="50" relative="1" as="geometry">
            <mxPoint x="330" y="360" as="sourcePoint" />
            <mxPoint x="499" y="410" as="targetPoint" />
          </mxGeometry>
        </mxCell>
        <mxCell id="cJAQ2IT-YWqgnm6LiaBg-17" value="" style="endArrow=classic;html=1;rounded=0;" edge="1" parent="1" target="cJAQ2IT-YWqgnm6LiaBg-6">
          <mxGeometry width="50" height="50" relative="1" as="geometry">
            <mxPoint x="180" y="360" as="sourcePoint" />
            <mxPoint x="509" y="420" as="targetPoint" />
          </mxGeometry>
        </mxCell>
        <mxCell id="cJAQ2IT-YWqgnm6LiaBg-18" value="在window对象上增加layout属性并复制为sdk中layout类" style="rounded=0;whiteSpace=wrap;html=1;" vertex="1" parent="1">
          <mxGeometry x="354" y="520" width="120" height="60" as="geometry" />
        </mxCell>
        <mxCell id="cJAQ2IT-YWqgnm6LiaBg-19" value="" style="endArrow=classic;html=1;rounded=0;entryX=0.5;entryY=0;entryDx=0;entryDy=0;" edge="1" parent="1">
          <mxGeometry width="50" height="50" relative="1" as="geometry">
            <mxPoint x="414" y="360" as="sourcePoint" />
            <mxPoint x="414" y="520" as="targetPoint" />
          </mxGeometry>
        </mxCell>
        <mxCell id="cJAQ2IT-YWqgnm6LiaBg-20" value="makecall: 创建呼叫" style="rounded=0;whiteSpace=wrap;html=1;" vertex="1" parent="1">
          <mxGeometry x="750" y="400" width="120" height="60" as="geometry" />
        </mxCell>
        <mxCell id="cJAQ2IT-YWqgnm6LiaBg-21" value="" style="endArrow=classic;html=1;rounded=0;" edge="1" parent="1" target="cJAQ2IT-YWqgnm6LiaBg-20">
          <mxGeometry width="50" height="50" relative="1" as="geometry">
            <mxPoint x="810" y="360" as="sourcePoint" />
            <mxPoint x="659" y="410" as="targetPoint" />
          </mxGeometry>
        </mxCell>
        <mxCell id="cJAQ2IT-YWqgnm6LiaBg-22" value="调用layout类中的init_layout_sdk方法:&amp;nbsp;&lt;br&gt;1: 提供sdk对象&lt;br&gt;2: 将视频布局到div" style="rounded=0;whiteSpace=wrap;html=1;" vertex="1" parent="1">
          <mxGeometry x="354" y="620" width="120" height="60" as="geometry" />
        </mxCell>
        <mxCell id="cJAQ2IT-YWqgnm6LiaBg-23" value="" style="endArrow=classic;html=1;rounded=0;exitX=0.5;exitY=1;exitDx=0;exitDy=0;entryX=0.5;entryY=0;entryDx=0;entryDy=0;" edge="1" parent="1" source="cJAQ2IT-YWqgnm6LiaBg-18" target="cJAQ2IT-YWqgnm6LiaBg-22">
          <mxGeometry width="50" height="50" relative="1" as="geometry">
            <mxPoint x="370" y="650" as="sourcePoint" />
            <mxPoint x="420" y="600" as="targetPoint" />
          </mxGeometry>
        </mxCell>
        <mxCell id="cJAQ2IT-YWqgnm6LiaBg-24" value="" style="endArrow=classic;html=1;rounded=0;exitX=0.5;exitY=1;exitDx=0;exitDy=0;" edge="1" parent="1" source="cJAQ2IT-YWqgnm6LiaBg-22">
          <mxGeometry width="50" height="50" relative="1" as="geometry">
            <mxPoint x="370" y="790" as="sourcePoint" />
            <mxPoint x="414" y="720" as="targetPoint" />
          </mxGeometry>
        </mxCell>
        <mxCell id="cJAQ2IT-YWqgnm6LiaBg-25" value="&lt;span style=&quot;color: rgb(0, 0, 0); font-family: Helvetica; font-size: 12px; font-style: normal; font-variant-ligatures: normal; font-variant-caps: normal; font-weight: 400; letter-spacing: normal; orphans: 2; text-align: center; text-indent: 0px; text-transform: none; widows: 2; word-spacing: 0px; -webkit-text-stroke-width: 0px; background-color: rgb(251, 251, 251); text-decoration-thickness: initial; text-decoration-style: initial; text-decoration-color: initial; float: none; display: inline !important;&quot;&gt;init_layout_sdk方法回调hook_setup函数并将其赋值给zjsdk2中的属性&lt;/span&gt;" style="rounded=0;whiteSpace=wrap;html=1;" vertex="1" parent="1">
          <mxGeometry x="354" y="720" width="120" height="70" as="geometry" />
        </mxCell>
        <mxCell id="cJAQ2IT-YWqgnm6LiaBg-26" value="" style="endArrow=classic;html=1;rounded=0;exitX=0.5;exitY=1;exitDx=0;exitDy=0;entryX=0.5;entryY=0;entryDx=0;entryDy=0;" edge="1" parent="1" source="cJAQ2IT-YWqgnm6LiaBg-25" target="cJAQ2IT-YWqgnm6LiaBg-27">
          <mxGeometry width="50" height="50" relative="1" as="geometry">
            <mxPoint x="370" y="720" as="sourcePoint" />
            <mxPoint x="410" y="810" as="targetPoint" />
          </mxGeometry>
        </mxCell>
        <mxCell id="cJAQ2IT-YWqgnm6LiaBg-27" value="hook_setup方法调用了sdk2中getrawsdk进行请求数据,对请求到的数据在byapi_plat_mosicis中进行了处理" style="rounded=0;whiteSpace=wrap;html=1;" vertex="1" parent="1">
          <mxGeometry x="354" y="820" width="120" height="90" as="geometry" />
        </mxCell>
        <mxCell id="cJAQ2IT-YWqgnm6LiaBg-28" value="最终将处理好的数据放到oneLayoutcoords和onePaneCoords类中" style="rounded=0;whiteSpace=wrap;html=1;" vertex="1" parent="1">
          <mxGeometry x="354" y="940" width="120" height="60" as="geometry" />
        </mxCell>
        <mxCell id="cJAQ2IT-YWqgnm6LiaBg-29" value="" style="endArrow=classic;html=1;rounded=0;exitX=0.5;exitY=1;exitDx=0;exitDy=0;entryX=0.5;entryY=0;entryDx=0;entryDy=0;" edge="1" parent="1" source="cJAQ2IT-YWqgnm6LiaBg-27" target="cJAQ2IT-YWqgnm6LiaBg-28">
          <mxGeometry width="50" height="50" relative="1" as="geometry">
            <mxPoint x="640" y="800" as="sourcePoint" />
            <mxPoint x="690" y="750" as="targetPoint" />
          </mxGeometry>
        </mxCell>
        <mxCell id="cJAQ2IT-YWqgnm6LiaBg-30" value="" style="endArrow=classic;html=1;rounded=0;exitX=1;exitY=0.5;exitDx=0;exitDy=0;" edge="1" parent="1" source="cJAQ2IT-YWqgnm6LiaBg-28">
          <mxGeometry width="50" height="50" relative="1" as="geometry">
            <mxPoint x="640" y="800" as="sourcePoint" />
            <mxPoint x="530" y="970" as="targetPoint" />
          </mxGeometry>
        </mxCell>
        <mxCell id="cJAQ2IT-YWqgnm6LiaBg-31" value="将处理好的数据给到layoutSdk_inner类中的plat_layouts属性" style="rounded=0;whiteSpace=wrap;html=1;" vertex="1" parent="1">
          <mxGeometry x="530" y="940" width="120" height="60" as="geometry" />
        </mxCell>
        <mxCell id="cJAQ2IT-YWqgnm6LiaBg-32" value="调用SDK中follow_plat_layout方法触发fire_layout_policy方法" style="rounded=0;whiteSpace=wrap;html=1;" vertex="1" parent="1">
          <mxGeometry x="709" y="615" width="120" height="60" as="geometry" />
        </mxCell>
        <mxCell id="cJAQ2IT-YWqgnm6LiaBg-33" value="触发里面的_send_override_&lt;br&gt;clayout_for_one_div方法" style="rounded=0;whiteSpace=wrap;html=1;" vertex="1" parent="1">
          <mxGeometry x="709" y="725" width="120" height="60" as="geometry" />
        </mxCell>
        <mxCell id="cJAQ2IT-YWqgnm6LiaBg-34" value="触发里面的plat_layouts方法" style="rounded=0;whiteSpace=wrap;html=1;" vertex="1" parent="1">
          <mxGeometry x="709" y="835" width="120" height="60" as="geometry" />
        </mxCell>
        <mxCell id="cJAQ2IT-YWqgnm6LiaBg-35" value="plat_layouts方法for循环plat_layouts中的数据计算流分辨率" style="rounded=0;whiteSpace=wrap;html=1;" vertex="1" parent="1">
          <mxGeometry x="709" y="940" width="120" height="60" as="geometry" />
        </mxCell>
        <mxCell id="cJAQ2IT-YWqgnm6LiaBg-36" value="" style="endArrow=classic;html=1;rounded=0;exitX=1;exitY=0.5;exitDx=0;exitDy=0;" edge="1" parent="1" source="cJAQ2IT-YWqgnm6LiaBg-28">
          <mxGeometry width="50" height="50" relative="1" as="geometry">
            <mxPoint x="474" y="970" as="sourcePoint" />
            <mxPoint x="530" y="970" as="targetPoint" />
            <Array as="points">
              <mxPoint x="530" y="970" />
            </Array>
          </mxGeometry>
        </mxCell>
        <mxCell id="cJAQ2IT-YWqgnm6LiaBg-39" value="" style="endArrow=classic;html=1;rounded=0;exitX=1;exitY=0.5;exitDx=0;exitDy=0;" edge="1" parent="1" source="cJAQ2IT-YWqgnm6LiaBg-31" target="cJAQ2IT-YWqgnm6LiaBg-35">
          <mxGeometry width="50" height="50" relative="1" as="geometry">
            <mxPoint x="640" y="810" as="sourcePoint" />
            <mxPoint x="690" y="760" as="targetPoint" />
          </mxGeometry>
        </mxCell>
        <mxCell id="cJAQ2IT-YWqgnm6LiaBg-40" value="" style="endArrow=classic;html=1;rounded=0;exitX=0.5;exitY=1;exitDx=0;exitDy=0;" edge="1" parent="1" source="cJAQ2IT-YWqgnm6LiaBg-32" target="cJAQ2IT-YWqgnm6LiaBg-33">
          <mxGeometry width="50" height="50" relative="1" as="geometry">
            <mxPoint x="640" y="810" as="sourcePoint" />
            <mxPoint x="690" y="760" as="targetPoint" />
          </mxGeometry>
        </mxCell>
        <mxCell id="cJAQ2IT-YWqgnm6LiaBg-41" value="" style="endArrow=classic;html=1;rounded=0;exitX=0.5;exitY=1;exitDx=0;exitDy=0;entryX=0.5;entryY=0;entryDx=0;entryDy=0;" edge="1" parent="1" source="cJAQ2IT-YWqgnm6LiaBg-33" target="cJAQ2IT-YWqgnm6LiaBg-34">
          <mxGeometry width="50" height="50" relative="1" as="geometry">
            <mxPoint x="779" y="685" as="sourcePoint" />
            <mxPoint x="779" y="735" as="targetPoint" />
          </mxGeometry>
        </mxCell>
        <mxCell id="cJAQ2IT-YWqgnm6LiaBg-42" value="" style="endArrow=classic;html=1;rounded=0;exitX=0.5;exitY=1;exitDx=0;exitDy=0;entryX=0.5;entryY=0;entryDx=0;entryDy=0;" edge="1" parent="1" source="cJAQ2IT-YWqgnm6LiaBg-34" target="cJAQ2IT-YWqgnm6LiaBg-35">
          <mxGeometry width="50" height="50" relative="1" as="geometry">
            <mxPoint x="789" y="695" as="sourcePoint" />
            <mxPoint x="789" y="745" as="targetPoint" />
          </mxGeometry>
        </mxCell>
        <mxCell id="cJAQ2IT-YWqgnm6LiaBg-43" value="" style="rounded=0;whiteSpace=wrap;html=1;" vertex="1" parent="1">
          <mxGeometry x="980" y="670" width="460" height="220" as="geometry" />
        </mxCell>
        <mxCell id="cJAQ2IT-YWqgnm6LiaBg-44" value="OnePaneCoord" style="swimlane;fontStyle=1;align=center;verticalAlign=top;childLayout=stackLayout;horizontal=1;startSize=26;horizontalStack=0;resizeParent=1;resizeParentMax=0;resizeLast=0;collapsible=1;marginBottom=0;whiteSpace=wrap;html=1;" vertex="1" parent="1">
          <mxGeometry x="1030" y="695" width="160" height="144" as="geometry" />
        </mxCell>
        <mxCell id="cJAQ2IT-YWqgnm6LiaBg-45" value="+ x: number&lt;br&gt;+ y: number&lt;br&gt;+ w: number&lt;br&gt;+ h: number&lt;br&gt;+ z: number" style="text;strokeColor=none;fillColor=none;align=left;verticalAlign=top;spacingLeft=4;spacingRight=4;overflow=hidden;rotatable=0;points=[[0,0.5],[1,0.5]];portConstraint=eastwest;whiteSpace=wrap;html=1;" vertex="1" parent="cJAQ2IT-YWqgnm6LiaBg-44">
          <mxGeometry y="26" width="160" height="84" as="geometry" />
        </mxCell>
        <mxCell id="cJAQ2IT-YWqgnm6LiaBg-46" value="" style="line;strokeWidth=1;fillColor=none;align=left;verticalAlign=middle;spacingTop=-1;spacingLeft=3;spacingRight=3;rotatable=0;labelPosition=right;points=[];portConstraint=eastwest;strokeColor=inherit;" vertex="1" parent="cJAQ2IT-YWqgnm6LiaBg-44">
          <mxGeometry y="110" width="160" height="8" as="geometry" />
        </mxCell>
        <mxCell id="cJAQ2IT-YWqgnm6LiaBg-47" value="+ method(type): type" style="text;strokeColor=none;fillColor=none;align=left;verticalAlign=top;spacingLeft=4;spacingRight=4;overflow=hidden;rotatable=0;points=[[0,0.5],[1,0.5]];portConstraint=eastwest;whiteSpace=wrap;html=1;" vertex="1" parent="cJAQ2IT-YWqgnm6LiaBg-44">
          <mxGeometry y="118" width="160" height="26" as="geometry" />
        </mxCell>
        <mxCell id="cJAQ2IT-YWqgnm6LiaBg-52" value="oneLayoutcoords" style="swimlane;fontStyle=1;align=center;verticalAlign=top;childLayout=stackLayout;horizontal=1;startSize=26;horizontalStack=0;resizeParent=1;resizeParentMax=0;resizeLast=0;collapsible=1;marginBottom=0;whiteSpace=wrap;html=1;" vertex="1" parent="1">
          <mxGeometry x="1250" y="695" width="150" height="144" as="geometry" />
        </mxCell>
        <mxCell id="cJAQ2IT-YWqgnm6LiaBg-53" value="+ layout_id: string&lt;br&gt;+ layout_name: string&lt;br&gt;+ mosic_cnts: number&lt;br&gt;+ layout_coords: Array&amp;lt;OnePaneCoord&amp;gt;" style="text;strokeColor=none;fillColor=none;align=left;verticalAlign=top;spacingLeft=4;spacingRight=4;overflow=hidden;rotatable=0;points=[[0,0.5],[1,0.5]];portConstraint=eastwest;whiteSpace=wrap;html=1;" vertex="1" parent="cJAQ2IT-YWqgnm6LiaBg-52">
          <mxGeometry y="26" width="150" height="84" as="geometry" />
        </mxCell>
        <mxCell id="cJAQ2IT-YWqgnm6LiaBg-54" value="" style="line;strokeWidth=1;fillColor=none;align=left;verticalAlign=middle;spacingTop=-1;spacingLeft=3;spacingRight=3;rotatable=0;labelPosition=right;points=[];portConstraint=eastwest;strokeColor=inherit;" vertex="1" parent="cJAQ2IT-YWqgnm6LiaBg-52">
          <mxGeometry y="110" width="150" height="8" as="geometry" />
        </mxCell>
        <mxCell id="cJAQ2IT-YWqgnm6LiaBg-55" value="+ method(type): type" style="text;strokeColor=none;fillColor=none;align=left;verticalAlign=top;spacingLeft=4;spacingRight=4;overflow=hidden;rotatable=0;points=[[0,0.5],[1,0.5]];portConstraint=eastwest;whiteSpace=wrap;html=1;" vertex="1" parent="cJAQ2IT-YWqgnm6LiaBg-52">
          <mxGeometry y="118" width="150" height="26" as="geometry" />
        </mxCell>
        <mxCell id="cJAQ2IT-YWqgnm6LiaBg-57" value="" style="html=1;verticalAlign=bottom;endArrow=open;dashed=1;endSize=8;edgeStyle=elbowEdgeStyle;elbow=vertical;curved=0;rounded=0;entryX=0;entryY=0.5;entryDx=0;entryDy=0;exitX=1;exitY=0.5;exitDx=0;exitDy=0;" edge="1" parent="1" source="cJAQ2IT-YWqgnm6LiaBg-45" target="cJAQ2IT-YWqgnm6LiaBg-53">
          <mxGeometry relative="1" as="geometry">
            <mxPoint x="990" y="780" as="sourcePoint" />
            <mxPoint x="910" y="780" as="targetPoint" />
          </mxGeometry>
        </mxCell>
        <mxCell id="cJAQ2IT-YWqgnm6LiaBg-58" value="计算数据类图" style="text;html=1;strokeColor=none;fillColor=none;align=center;verticalAlign=middle;whiteSpace=wrap;rounded=0;" vertex="1" parent="1">
          <mxGeometry x="980" y="640" width="80" height="30" as="geometry" />
        </mxCell>
      </root>
    </mxGraphModel>
  </diagram>
</mxfile>
